HIERARCHY
ROOT hip
{
	OFFSET 0.000000 0.000000 0.000000 
	CHANNELS 6 Xposition Yposition Zposition Xrotation Zrotation Yrotation
	JOINT abdomen
	{
		OFFSET 0.000000 3.402643 0.000000 
		CHANNELS 3 Xrotation Zrotation Yrotation
		JOINT chest
		{
			OFFSET 0.000000 8.438565 -0.680529 
			CHANNELS 3 Xrotation Zrotation Yrotation
			JOINT neck
			{
				OFFSET 0.000000 10.207942 -0.272212 
				CHANNELS 3 Xrotation Zrotation Yrotation
				JOINT head
				{
					OFFSET 0.000000 3.130431 0.000000 
					CHANNELS 3 Xrotation Zrotation Yrotation
					End Site
					{
						OFFSET 0.000000 3.130435 0.000000 
					}
				}
			}
			JOINT lCollar
			{
				OFFSET 3.470700 6.669187 -0.816635 
				CHANNELS 3 Yrotation Zrotation Xrotation
				JOINT lShldr
				{
					OFFSET 3.198488 0.000000 0.000000 
					CHANNELS 3 Zrotation Yrotation Xrotation
					JOINT lForeArm
					{
						OFFSET 10.139888 0.000000 0.000000 
						CHANNELS 3 Yrotation Zrotation Xrotation
						JOINT lHand
						{
							OFFSET 8.370511 0.000000 0.000000 
							CHANNELS 3 Zrotation Yrotation Xrotation
							End Site
							{
								OFFSET 4.083176 0.000000 0.000000 
							}
						}
					}
				}
			}
			JOINT rCollar
			{
				OFFSET -3.470700 6.669187 -0.816635 
				CHANNELS 3 Yrotation Zrotation Xrotation
				JOINT rShldr
				{
					OFFSET -3.198488 0.000000 0.000000 
					CHANNELS 3 Zrotation Yrotation Xrotation
					JOINT rForeArm
					{
						OFFSET -10.139888 0.000000 0.000000 
						CHANNELS 3 Yrotation Zrotation Xrotation
						JOINT rHand
						{
							OFFSET -8.370511 0.000000 0.000000 
							CHANNELS 3 Zrotation Yrotation Xrotation
							End Site
							{
								OFFSET -4.083176 0.000000 0.000000 
							}
						}
					}
				}
			}
		}
	}
	JOINT lThigh
	{
		OFFSET 5.308129 -1.633274 1.361059 
		CHANNELS 3 Xrotation Zrotation Yrotation
		JOINT lShin
		{
			OFFSET -2.041588 -20.007561 0.000000 
			CHANNELS 3 Xrotation Zrotation Yrotation
			JOINT lFoot
			{
				OFFSET 0.000000 -19.190928 -1.224953 
				CHANNELS 3 Xrotation Yrotation Zrotation
				End Site
				{
					OFFSET 0.000000 -2.449906 4.627600 
				}
			}
		}
	}
	JOINT rThigh
	{
		OFFSET -5.308129 -1.633274 1.361059 
		CHANNELS 3 Xrotation Zrotation Yrotation
		JOINT rShin
		{
			OFFSET 2.041588 -20.007561 0.000000 
			CHANNELS 3 Xrotation Zrotation Yrotation
			JOINT rFoot
			{
				OFFSET 0.000000 -19.190928 -1.224953 
				CHANNELS 3 Xrotation Yrotation Zrotation
				End Site
				{
					OFFSET 0.000000 -2.449906 4.627600 
				}
			}
		}
	}
}
MOTION
Frames: 18
Frame Time: 0.033333
0.502665 51.933784 -2.624281 0.000439 -0.107421 -0.234393 0.000000 0.000000 0.000000 -1.851501 -0.487147 -3.906440 5.813102 -0.038979 -3.750005 5.996067 -0.009766 0.156250 -4.061919 4.889277 -1.046771 -10.059024 14.392250 -17.769773 0.013995 0.834137 37.385582 7.494322 -6.754632 -4.013772 -0.299989 -17.937284 -0.654769 28.295300 -6.553494 -29.818516 -0.069298 -2.942752 25.907959 -7.609750 6.696797 -4.029915 -0.829951 6.550271 7.490924 8.259966 -2.910421 13.302170 -5.650404 -0.006313 0.540074 -1.182095 -10.479980 -8.457305 9.454729 1.704096 -10.164453 -5.066958 -0.037205 0.377021 
0.452904 51.947498 -2.467258 -0.029638 -0.048827 0.400391 0.000000 0.000000 0.000000 -2.153783 -0.691312 -4.404683 5.801493 -0.146109 -4.101599 5.564482 -0.332026 0.332026 -4.530581 4.687023 -1.338726 -9.801292 14.463674 -17.684528 0.015449 0.799016 37.443962 7.747349 -6.864409 -4.050151 -0.519039 -18.324429 -0.904817 28.573561 -6.890127 -30.038267 -0.069217 -3.008093 25.508562 -7.952772 6.359542 -4.047993 -0.547252 6.502642 7.444622 7.941477 -2.818727 13.112991 -5.553305 -0.019311 0.523598 0.029102 -9.715329 -8.583126 6.489216 1.694401 -17.463505 -2.404596 -0.034334 1.481162 
0.334568 51.943428 -2.316598 -0.063175 0.341758 0.869183 0.000000 0.000000 0.000000 -2.466760 -1.148679 -4.571350 5.820646 -0.516077 -4.365497 5.370224 -0.175779 0.283202 -4.862268 4.469584 -1.669348 -9.556668 14.132070 -17.796238 -0.000831 0.912175 37.659756 7.765594 -6.843706 -4.049993 -1.093707 -18.701921 -1.275242 28.723886 -6.985376 -30.162310 -0.070334 -3.069292 25.754208 -8.457301 6.131288 -4.067137 -0.195623 6.193365 7.302430 7.473164 -2.740575 12.756884 -5.406469 -0.024224 0.553135 1.258573 -9.311422 -8.504579 3.823042 1.359617 -21.982803 -0.553040 -0.027190 2.343832 
0.164579 51.899540 -2.167746 0.203269 0.888495 1.142744 0.000000 0.000000 0.000000 -2.965932 -1.722876 -4.631213 5.402553 -0.905461 -4.453803 5.879013 0.019531 0.312503 -4.806919 3.623389 -2.183874 -8.641135 13.655216 -17.695648 -0.019397 0.921695 37.591434 8.744108 -7.132543 -4.149423 -1.548806 -19.083721 -1.806241 28.804779 -7.103749 -30.261133 -0.066307 -3.056247 25.744511 -8.724086 6.465342 -4.117273 -0.381281 5.918746 7.130007 7.634006 -2.831617 12.400580 -5.592566 -0.016130 0.503765 1.921260 -9.425746 -8.277442 2.499697 0.867632 -22.614307 -0.119198 -0.019638 3.440461 
0.030888 51.881538 -1.950169 -0.430362 1.240201 0.420035 0.000000 0.000000 0.000000 -2.861093 -2.074900 -4.045971 5.462561 -0.866915 -4.102126 6.072022 -0.292961 0.429682 -4.282639 3.420011 -2.087705 -8.512156 13.014419 -17.825497 -0.034530 0.966614 37.181782 9.262265 -6.951295 -4.181520 -1.121230 -18.882376 -1.710665 28.469517 -7.504296 -30.143442 -0.061736 -3.082617 25.998991 -9.084566 6.745354 -4.165086 0.810175 5.623075 7.148054 7.214625 -2.685624 12.903264 -5.624063 -0.003084 0.264724 3.199371 -9.855023 -9.010972 1.785910 1.204141 -21.454605 -0.152895 -0.047024 3.775225 
-0.158568 51.867329 -1.774313 -0.487590 0.810547 0.048961 0.000000 0.000000 0.000000 -3.112348 -1.812434 -3.791180 5.360468 -0.565117 -3.867385 5.790284 -0.107419 0.390624 -4.131531 3.713914 -2.303148 -8.652279 12.924399 -18.042156 -0.060546 1.095285 37.280807 9.632823 -7.397565 -4.243726 -1.064299 -18.686489 -1.976245 28.557846 -7.618175 -30.064280 -0.056822 -3.087175 26.253519 -9.120623 6.850684 -4.175137 0.868811 6.131802 7.263747 7.800487 -2.343807 13.001985 -6.073338 0.016939 -0.290980 4.784552 -9.316956 -9.229465 -0.813174 1.655451 -21.320366 0.320180 -0.022087 3.434622 
-0.420219 51.861904 -1.583565 -0.716090 0.605460 -0.302717 0.000000 0.000000 0.000000 -3.217105 -1.803106 -3.585895 5.314012 -0.477523 -3.691603 5.547780 0.156247 0.332057 -3.802565 3.736092 -2.392207 -8.696325 12.768902 -18.269857 -0.071556 1.241225 37.741375 9.592976 -7.693641 -4.265979 -0.775697 -18.451488 -2.047383 28.432905 -7.820778 -30.053656 -0.058392 -3.126635 26.469463 -8.419084 7.104650 -4.120542 1.278938 6.463533 7.362793 7.982366 -2.029307 13.252515 -6.283885 0.061648 -0.751331 5.770709 -8.808484 -9.193423 -1.290535 1.772419 -21.407536 0.077470 -0.014589 3.231351 
-0.710536 51.846058 -1.399644 -0.602521 0.624963 -0.624963 0.000000 0.000000 0.000000 -3.640606 -1.988622 -3.430073 5.159044 -0.506798 -3.623250 5.470323 0.263667 0.341838 -3.753565 3.429018 -2.791658 -8.276422 13.130735 -18.030806 -0.063619 1.184748 37.682076 9.154182 -7.753428 -4.220993 -0.696484 -18.639996 -2.451959 28.649632 -7.772767 -29.921307 -0.058179 -3.184543 27.340620 -7.827993 7.044456 -4.072527 1.405223 6.620173 7.295100 8.057040 -1.724797 13.558258 -6.422888 0.064526 -1.123837 5.804716 -8.567741 -9.106160 -0.495549 1.890813 -21.472458 -0.760471 -0.080126 3.319600 
-0.993675 51.839783 -1.214614 -0.944228 0.458935 -0.839817 0.000000 0.000000 0.000000 -3.685588 -2.076440 -3.391044 5.199295 -0.370348 -3.632926 5.763716 0.292962 0.390670 -3.609591 3.504093 -2.851061 -8.214453 13.291125 -18.064423 -0.038901 1.099351 37.270790 8.796174 -7.512254 -4.172336 -0.519042 -18.676619 -2.473612 28.857067 -7.596859 -29.788935 -0.056435 -3.119104 27.387945 -8.416080 7.045342 -4.120817 1.688134 6.959373 7.389206 8.669871 -1.425922 13.690040 -6.797835 0.068842 -1.368854 6.256938 -8.201047 -9.113591 -0.189579 2.004447 -21.505434 -1.276119 -0.057558 3.176439 
-1.264195 51.855125 -1.059700 -0.924676 0.302660 -1.269514 0.000000 0.000000 0.000000 -3.955988 -2.076827 -3.205266 5.050198 -0.341157 -3.505972 6.038393 0.527334 0.351638 -3.348242 3.564209 -3.086557 -8.268530 13.479996 -18.664761 -0.041701 1.409529 38.250938 8.752061 -7.259327 -4.159370 -0.467048 -18.592249 -2.717549 28.976152 -7.255412 -30.144415 -0.047168 -3.167554 27.701933 -8.273218 7.270257 -4.123635 1.893755 7.274743 7.512886 8.686749 -1.219854 13.916746 -6.853450 0.104990 -1.534539 6.239761 -7.783101 -8.913115 -0.360876 2.087661 -21.711611 -1.281672 -0.042789 2.825682 
-1.482634 51.863167 -0.903319 -1.133608 0.370943 -1.630888 0.000000 0.000000 0.000000 -3.985607 -2.184426 -3.039367 5.016864 -0.448429 -3.398562 5.793486 0.517572 0.273515 -3.267150 3.405132 -3.115420 -8.314756 13.777478 -19.100464 -0.032138 1.499618 38.027344 8.845513 -7.017263 -4.155448 -0.370594 -18.616405 -2.748425 29.013830 -6.884587 -30.211823 -0.035441 -3.096966 27.377855 -8.480521 7.442306 -4.156224 2.293114 7.262984 7.510396 8.713883 -0.984518 14.418328 -6.921097 0.102738 -1.557214 6.371275 -7.621524 -8.873951 -0.360549 2.058082 -21.574472 -1.371938 -0.050907 2.728887 
-1.669984 51.854980 -0.739163 -1.533323 0.292802 -1.933619 0.000000 0.000000 0.000000 -3.881944 -2.155286 -2.980814 5.089246 -0.536234 -3.271707 5.706001 0.624993 0.263763 -3.211777 3.436037 -3.028012 -8.419822 14.098027 -18.911982 -0.026976 1.423551 37.723461 8.834291 -6.998699 -4.151408 -0.038156 -18.219276 -2.618742 28.557049 -6.644269 -30.314852 -0.041618 -3.102172 27.827282 -8.449278 7.592698 -4.153563 2.675647 7.470412 7.685425 9.198688 -0.856495 14.530387 -7.244427 0.147983 -1.623732 6.803452 -7.409216 -8.895799 -0.289861 2.124094 -21.268528 -1.578798 -0.078102 2.688442 
-1.820084 51.846825 -0.555571 -1.514946 0.302533 -2.089866 0.000000 0.000000 0.000000 -4.137673 -2.106487 -3.000326 5.025591 -0.643561 -3.144772 5.451882 0.390616 0.390682 -3.238436 3.440506 -3.242592 -8.623421 14.463002 -18.688141 -0.029464 1.484076 38.388550 8.689147 -7.362155 -4.155115 0.070849 -18.022001 -2.831845 28.188435 -6.464189 -30.252270 -0.021727 -3.058739 28.217466 -8.522434 7.666343 -4.163923 2.885945 7.550609 7.742301 9.274781 -0.763463 14.699250 -7.425566 0.115308 -1.714319 6.786175 -7.323662 -8.864809 0.020714 2.125533 -21.377260 -1.931987 -0.059204 2.740938 
-1.934689 51.853363 -0.390008 -1.308174 0.263506 -2.031229 0.000000 0.000000 0.000000 -4.535999 -1.940646 -3.029244 4.875650 -0.770359 -3.096079 5.401909 0.234370 0.371131 -3.308723 3.398140 -3.603540 -8.752648 14.573706 -18.316664 -0.035879 1.366687 38.377243 8.479064 -7.287277 -4.135717 0.008670 -17.966175 -3.202397 28.025019 -6.359937 -30.163639 -0.024143 -3.001840 28.118586 -8.688076 7.634973 -4.183274 2.840321 7.703206 7.805500 9.284748 -0.732582 14.622770 -7.552820 0.115777 -1.714710 6.585774 -7.075259 -8.616900 0.297719 2.013052 -21.633699 -2.266795 -0.065607 2.657053 
-2.007264 51.854107 -0.249113 -1.180226 0.253769 -1.884747 0.000000 0.000000 0.000000 -4.821356 -1.823404 -3.156116 4.717290 -0.731353 -3.096074 5.507653 -0.019531 0.468750 -3.286343 3.529124 -3.848026 -9.148416 14.532165 -18.505203 -0.034534 1.413674 38.827080 8.086647 -7.283562 -4.101369 -0.027636 -17.753275 -3.452746 27.811285 -6.198961 -30.619322 -0.027399 -3.133530 28.395311 -8.210696 7.842668 -4.152694 2.712618 7.799161 7.804508 9.614638 -0.702638 14.443521 -7.861287 0.143679 -1.596145 6.538901 -6.988132 -8.576272 0.605765 2.019488 -21.801451 -2.627134 -0.080366 2.632986 
-2.038341 51.843029 -0.136651 -1.220523 0.312353 -1.757786 0.000000 0.000000 0.000000 -4.933777 -1.706314 -3.204611 4.664204 -0.663124 -3.047123 5.689764 -0.351544 0.585926 -3.397937 3.533024 -3.945453 -9.352234 14.573139 -18.264246 -0.014752 1.205024 38.131168 7.908453 -7.120200 -4.064641 -0.075854 -17.713057 -3.554699 27.706154 -6.116266 -30.499134 -0.025902 -3.058707 28.139454 -8.146890 7.935882 -4.146801 2.829784 7.758945 7.771271 9.635777 -0.673917 14.415348 -7.947031 0.127809 -1.646714 6.625817 -7.066485 -8.704476 0.783081 2.083648 -21.781696 -2.841379 -0.087856 2.737112 
-2.063730 51.833099 -0.028281 -1.036415 0.351390 -1.796901 0.000000 0.000000 0.000000 -5.207236 -1.569927 -3.126234 4.670118 -0.614430 -2.929938 5.452181 -0.595664 0.654262 -3.519143 3.566572 -4.178956 -9.536804 14.753925 -18.282784 -0.035037 1.351130 38.855621 7.616501 -7.315540 -4.050170 -0.159352 -17.379953 -3.836063 27.300558 -6.001944 -30.504915 -0.009540 -3.062729 28.198551 -8.024588 7.865724 -4.128629 2.819915 7.779830 7.812697 9.601544 -0.720949 14.403651 -8.064416 0.153227 -1.689153 6.487856 -7.063948 -8.655538 0.938759 2.045960 -21.772549 -3.041806 -0.093732 2.862978 
-2.055810 51.824165 0.057680 -1.001786 0.527117 -1.679706 0.000000 0.000000 0.000000 -5.277761 -1.511364 -3.165279 4.516199 -0.682759 -2.832295 5.620154 -0.400361 0.693342 -3.388854 3.560801 -4.237911 -9.677483 14.612991 -18.009514 -0.035237 1.239750 38.952038 7.506912 -7.439818 -4.050843 -0.193430 -17.368805 -3.885587 27.176291 -6.007257 -30.399052 -0.026049 -3.112687 28.834572 -7.969895 8.084470 -4.140252 2.937907 7.605420 7.766750 9.431370 -0.752160 14.409548 -8.044708 0.130760 -1.656516 6.451625 -7.262324 -8.749507 1.230399 2.029289 -21.658331 -3.283699 -0.107425 3.081182 
